# xmcd
#
# Track frame offsets: 
#        150
#        9974
#        17953
#        33705
#        43380
#        56818
#        69417
#        80449
#        91039
#        103418
#        115996
#        127329
#
# Disc length: 1825 seconds
#
# Revision: 0
# Processed by: cddbd v1.5.2PL0 Copyright (c) Steve Scherf et al.
# Submitted via: ExactAudioCopyFreeDBPlugin 1.0
#
DISCID=a9071f0c
DTITLE=James Brown 5 More great artists - James Brown - Night Train
DYEAR=2015
DGENRE=Soul
TTITLE0=James Brown - Hold It
TTITLE1=James Brown - Scratch
TTITLE2=James Brown - Night Train
TTITLE3=The Wobblers - The Wobble
TTITLE4=James Brown - Night Flying
TTITLE5=Herb Hardesty - Just A Little Bit Of Everything
TTITLE6=Henry Moore - Doin' Everything
TTITLE7=James Brown - Suds
TTITLE8=Hank Marr - Tonk Game
TTITLE9=Henry Moore - Switch-A-Roo
TTITLE10=Clifford Scott - Bushy Tail
TTITLE11=James Brown - Cross Firing
EXTD=
EXTT0=
EXTT1=
EXTT2=
EXTT3=
EXTT4=
EXTT5=
EXTT6=
EXTT7=
EXTT8=
EXTT9=
EXTT10=
EXTT11=
PLAYORDER=
